<?xml version="1.0" encoding="UTF-8"?>
<svg version="1.1" xmlns="http://www.w3.org/2000/svg" width="626" height="147">
<path d="M0 0 C1.27852844 -0.01929062 2.55705688 -0.03858124 3.87432861 -0.05845642 C5.27265406 -0.07326466 6.6709908 -0.08703792 8.06933594 -0.09985352 C8.77496422 -0.10642534 9.4805925 -0.11299717 10.20760345 -0.11976814 C13.94388322 -0.15233499 17.68013482 -0.1767905 21.41650391 -0.19628906 C24.50123803 -0.21408701 27.58505534 -0.24888364 30.66943359 -0.29882812 C34.40126874 -0.35917779 38.13225551 -0.38978413 41.86455536 -0.39946175 C43.28232452 -0.40799357 44.70007239 -0.42675601 46.11756134 -0.45620537 C58.58014859 -0.70115251 58.58014859 -0.70115251 63.16601562 3.12255859 C67.11574119 7.25624257 67.02176537 10.52670682 66.96646118 16.08554077 C66.69839049 21.22985409 65.73660716 26.18595868 64.72167969 31.22827148 C64.50683426 32.33047531 64.29198883 33.43267914 64.07063293 34.56828308 C63.61748703 36.87936304 63.15922106 39.1894445 62.69604492 41.49853516 C61.99021831 45.02620131 61.30507158 48.55745131 60.62207031 52.08959961 C60.17733083 54.34439868 59.73140833 56.59896481 59.28417969 58.85327148 C59.08092575 59.90335892 58.87767181 60.95344635 58.66825867 62.03535461 C55.64932863 76.90652111 45.92069622 85.58672213 33.80371094 94.20874023 C26.57652396 98.78697153 20.31167869 98.77908748 11.88964844 98.70483398 C10.54782025 98.70498926 9.20599162 98.7064829 7.86416626 98.70924377 C5.06516459 98.71062142 2.26667933 98.69817465 -0.53222656 98.67529297 C-4.10766783 98.64685416 -7.68225603 98.64966869 -11.257761 98.66238308 C-14.02372443 98.66935804 -16.78949285 98.66153136 -19.55543137 98.64912605 C-21.51070806 98.6424606 -23.46601226 98.64673929 -25.42129517 98.65122986 C-26.61628632 98.63854568 -27.81127747 98.62586151 -29.04248047 98.61279297 C-30.08868561 98.60738998 -31.13489075 98.601987 -32.21279907 98.59642029 C-36.75334057 98.00641416 -40.05532107 96.13952991 -43.57128906 93.27124023 C-48.71404586 83.57912165 -43.91463576 69.27863401 -41.19628906 59.20874023 C-40.86628906 58.54874023 -40.53628906 57.88874023 -40.19628906 57.20874023 C-39.94532012 55.83182193 -39.73503074 54.44733316 -39.54785156 53.06030273 C-39.43127197 52.22515137 -39.31469238 51.39 -39.19458008 50.52954102 C-39.00980103 49.19511963 -39.00980103 49.19511963 -38.82128906 47.83374023 C-35.62230143 25.85808609 -28.5923939 16.66468846 -11.29003906 2.70483398 C-7.5915948 0.06210236 -4.42028206 0.06227391 0 0 Z " fill="#E8FBAD" transform="translate(45.1962890625,27.791259765625)"/>
<path d="M0 0 C1.27852844 -0.01929062 2.55705688 -0.03858124 3.87432861 -0.05845642 C5.27265406 -0.07326466 6.6709908 -0.08703792 8.06933594 -0.09985352 C8.77496422 -0.10642534 9.4805925 -0.11299717 10.20760345 -0.11976814 C13.94388322 -0.15233499 17.68013482 -0.1767905 21.41650391 -0.19628906 C24.50123803 -0.21408701 27.58505534 -0.24888364 30.66943359 -0.29882812 C34.40126874 -0.35917779 38.13225551 -0.38978413 41.86455536 -0.39946175 C43.28232452 -0.40799357 44.70007239 -0.42675601 46.11756134 -0.45620537 C58.58014859 -0.70115251 58.58014859 -0.70115251 63.16601562 3.12255859 C67.11574119 7.25624257 67.02176537 10.52670682 66.96646118 16.08554077 C66.69839049 21.22985409 65.73660716 26.18595868 64.72167969 31.22827148 C64.50683426 32.33047531 64.29198883 33.43267914 64.07063293 34.56828308 C63.61748703 36.87936304 63.15922106 39.1894445 62.69604492 41.49853516 C61.99021831 45.02620131 61.30507158 48.55745131 60.62207031 52.08959961 C60.17733083 54.34439868 59.73140833 56.59896481 59.28417969 58.85327148 C59.08092575 59.90335892 58.87767181 60.95344635 58.66825867 62.03535461 C55.64932863 76.90652111 45.92069622 85.58672213 33.80371094 94.20874023 C26.57652396 98.78697153 20.31167869 98.77908748 11.88964844 98.70483398 C10.54782025 98.70498926 9.20599162 98.7064829 7.86416626 98.70924377 C5.06516459 98.71062142 2.26667933 98.69817465 -0.53222656 98.67529297 C-4.10766783 98.64685416 -7.68225603 98.64966869 -11.257761 98.66238308 C-14.02372443 98.66935804 -16.78949285 98.66153136 -19.55543137 98.64912605 C-21.51070806 98.6424606 -23.46601226 98.64673929 -25.42129517 98.65122986 C-26.61628632 98.63854568 -27.81127747 98.62586151 -29.04248047 98.61279297 C-30.08868561 98.60738998 -31.13489075 98.601987 -32.21279907 98.59642029 C-36.75334057 98.00641416 -40.05532107 96.13952991 -43.57128906 93.27124023 C-48.71404586 83.57912165 -43.91463576 69.27863401 -41.19628906 59.20874023 C-40.86628906 58.54874023 -40.53628906 57.88874023 -40.19628906 57.20874023 C-39.94532012 55.83182193 -39.73503074 54.44733316 -39.54785156 53.06030273 C-39.43127197 52.22515137 -39.31469238 51.39 -39.19458008 50.52954102 C-39.00980103 49.19511963 -39.00980103 49.19511963 -38.82128906 47.83374023 C-35.62230143 25.85808609 -28.5923939 16.66468846 -11.29003906 2.70483398 C-7.5915948 0.06210236 -4.42028206 0.06227391 0 0 Z M-14.19628906 12.20874023 C-15.5158476 14.81372407 -15.92794602 16.81936611 -16.50878906 19.77124023 C-16.65501709 20.46668945 -16.80124512 21.16213867 -16.9519043 21.87866211 C-17.24877833 23.3026209 -17.53286493 24.72930932 -17.80371094 26.15844727 C-18.38435855 29.19095886 -19.08246239 32.19632602 -19.75878906 35.20874023 C-21.36275202 42.85166753 -22.80962649 50.52362238 -24.19628906 58.20874023 C-24.38191406 59.22709961 -24.56753906 60.24545898 -24.75878906 61.29467773 C-25.21386286 64.32579431 -25.46943391 67.27025078 -25.57128906 70.33374023 C-25.62027344 71.34694336 -25.66925781 72.36014648 -25.71972656 73.40405273 C-25.44012271 76.36990192 -25.44012271 76.36990192 -23.04881287 78.35168457 C-19.71869448 80.5196648 -17.97159105 80.71462699 -14.0324707 80.72631836 C-12.81092789 80.738927 -11.58938507 80.75153564 -10.33082581 80.76452637 C-8.36350746 80.75238098 -8.36350746 80.75238098 -6.35644531 80.73999023 C-4.98790715 80.74268743 -3.61937086 80.74657176 -2.25083923 80.75158691 C0.61315206 80.7574734 3.47664319 80.74894874 6.34057617 80.73022461 C10.00032179 80.70745602 13.65889257 80.7205485 17.31859493 80.74451447 C20.14377079 80.7590146 22.96867121 80.75434707 25.79385567 80.7440033 C27.79567863 80.74005992 29.79751256 80.75214907 31.79930115 80.76452637 C40.59406091 80.8082883 40.59406091 80.8082883 47.80371094 76.20874023 C51.4336236 71.80997421 52.69133819 67.57582691 53.62011719 62.05639648 C53.76271469 61.27920761 53.90531219 60.50201874 54.05223083 59.70127869 C54.50339916 57.22676285 54.9353282 54.74936035 55.36621094 52.27124023 C55.65851275 50.64274791 55.95212227 49.01448974 56.24707031 47.38647461 C56.68289212 44.97932119 57.11734443 42.57200167 57.54530334 40.16343689 C58.67014432 33.84593019 59.91961807 27.55995328 61.22558594 21.27758789 C61.96511225 17.35197737 62.32782885 14.17706157 61.80371094 10.20874023 C59.59630413 7.24015867 58.31773721 6.38008233 54.80371094 5.20874023 C52.86845695 5.08525004 50.92935638 5.01892241 48.99047852 4.98413086 C47.1976519 4.95035339 47.1976519 4.95035339 45.36860657 4.91589355 C39.897403 4.84485362 34.42636152 4.7871996 28.95483398 4.7487793 C26.07076257 4.72653293 23.18799123 4.68480743 20.30444336 4.62573242 C16.81245833 4.55434753 13.32169287 4.51790579 9.82901573 4.50566101 C7.86354175 4.49030509 5.89843302 4.44051747 3.93354797 4.39001465 C-4.13647483 4.40800075 -9.18272702 5.56535776 -14.19628906 12.20874023 Z " fill="#06321E" transform="translate(45.1962890625,27.791259765625)"/>
<path d="M0 0 C5.61 0 11.22 0 17 0 C17.33 18.81 17.66 37.62 18 57 C21.691875 52.875 25.38375 48.75 29.1875 44.5 C42.36486306 30.57196144 42.36486306 30.57196144 52.26879883 30.2421875 C56.30353406 30.52426285 60.0600254 31.06782935 64 32 C62.41568547 35.90851199 59.73364905 38.52367356 56.7734375 41.421875 C56.26575836 41.92672424 55.75807922 42.43157349 55.23501587 42.95172119 C53.61966158 44.55592096 51.99747791 46.15300856 50.375 47.75 C49.27558302 48.83938107 48.17661941 49.9292199 47.078125 51.01953125 C44.3906398 53.68501885 41.69700979 56.34415143 39 59 C40.38331509 62.81205919 42.14904554 65.95783982 44.4140625 69.31640625 C45.43306641 70.83524414 45.43306641 70.83524414 46.47265625 72.38476562 C47.18292969 73.43341797 47.89320313 74.48207031 48.625 75.5625 C50.01302083 77.62630208 51.40104167 79.69010417 52.7890625 81.75390625 C54.95354997 84.96917983 57.12261415 88.18097382 59.30761719 91.38232422 C60.03883789 92.46143066 60.77005859 93.54053711 61.5234375 94.65234375 C62.19036621 95.63066162 62.85729492 96.60897949 63.54443359 97.61694336 C65 100 65 100 65 102 C58.29945392 103.40813506 51.53074992 104.6074891 45 102 C38.96400387 96.46553341 35.2708055 88.90080251 31.49658203 81.73388672 C29.59014672 78.25129901 27.39747253 75.15928623 25 72 C21.34302787 74.71308361 18.44259846 77.19773908 17.32861328 81.73388672 C17.08962326 84.81852537 17.02985569 87.84397192 17.0625 90.9375 C17.04638672 92.00291016 17.03027344 93.06832031 17.01367188 94.16601562 C16.97854503 96.77711146 16.98507835 99.38871053 17 102 C11.39 102 5.78 102 0 102 C0 68.34 0 34.68 0 0 Z " fill="#03301D" transform="translate(549,14)"/>
<path d="M0 0 C8.88502389 6.33711263 13.58005396 14.51049149 15.44140625 25.16796875 C15.88511603 28.72326356 15.94524665 32.06110309 15.75 35.640625 C14.75 36.640625 14.75 36.640625 12.61766052 36.76087952 C11.67834183 36.75865891 10.73902313 36.75643829 9.77124023 36.75415039 C8.71021591 36.75407486 7.64919159 36.75399933 6.55601501 36.75392151 C4.82479149 36.74617958 4.82479149 36.74617958 3.05859375 36.73828125 C1.88361832 36.7368663 0.70864288 36.73545135 -0.50193787 36.73399353 C-4.27215064 36.72837492 -8.04230504 36.71581926 -11.8125 36.703125 C-14.36132727 36.6981124 -16.91015547 36.69354908 -19.45898438 36.68945312 C-25.72267633 36.67839944 -31.98633399 36.66164321 -38.25 36.640625 C-37.66295841 38.23831528 -37.06270067 39.83115296 -36.45703125 41.421875 C-36.12421143 42.30939453 -35.7913916 43.19691406 -35.44848633 44.11132812 C-32.98285543 49.31481888 -29.04827984 51.874691 -23.875 54.078125 C-17.99563182 54.99044075 -13.32236527 54.71666081 -8 51.953125 C-4.63709313 49.26289118 -4.63709313 49.26289118 -0.25 43.640625 C4.37 45.950625 8.99 48.260625 13.75 50.640625 C12.1642025 56.983815 7.76673033 61.42729199 2.53515625 65.265625 C-7.17861184 71.00169895 -17.90386264 72.08683799 -28.8125 69.515625 C-38.92965597 66.45761458 -46.38794956 60.06610015 -51.5 50.890625 C-55.83073899 41.46809666 -56.37517668 30.78162151 -53.42578125 20.87109375 C-49.73430674 11.13902459 -43.9592164 3.33585496 -34.7109375 -1.7578125 C-23.80188974 -6.29520405 -10.25724228 -6.19708388 0 0 Z M-34.25 16.640625 C-35.24 18.950625 -36.23 21.260625 -37.25 23.640625 C-25.37 23.640625 -13.49 23.640625 -1.25 23.640625 C-3.38678047 17.23028359 -4.91244072 15.24375726 -10.25 11.640625 C-19.07677807 7.67758178 -27.43456035 9.82518535 -34.25 16.640625 Z " fill="#03301D" transform="translate(360.25,48.359375)"/>
<path d="M0 0 C6.17294698 4.30749597 9.87309395 9.33598994 11.7578125 16.67578125 C12.02741728 20.59158783 11.99046606 24.49453409 11.953125 28.41796875 C11.9502951 29.54147736 11.94746521 30.66498596 11.94454956 31.82254028 C11.93338553 35.39873052 11.90828751 38.97466715 11.8828125 42.55078125 C11.87277783 44.98046512 11.86365283 47.41015294 11.85546875 49.83984375 C11.8334585 55.78525345 11.7989543 61.7304744 11.7578125 67.67578125 C6.4778125 67.67578125 1.1978125 67.67578125 -4.2421875 67.67578125 C-4.5721875 65.69578125 -4.9021875 63.71578125 -5.2421875 61.67578125 C-5.81066406 62.15789062 -6.37914062 62.64 -6.96484375 63.13671875 C-13.33850313 68.35056365 -18.57262812 71.2014244 -27.07421875 70.921875 C-34.92430621 70.03078399 -41.60281202 67.27608484 -47.2421875 61.67578125 C-51.86976773 55.47884772 -52.92468954 49.22053112 -52.2421875 41.67578125 C-50.63752471 34.60010283 -47.09024056 30.79667183 -41.3046875 26.48828125 C-34.97959737 22.74486056 -29.47563843 22.3621808 -22.3046875 22.42578125 C-21.43650391 22.41804688 -20.56832031 22.4103125 -19.67382812 22.40234375 C-14.47707637 22.41805577 -10.16145033 22.98917685 -5.2421875 24.67578125 C-5.31111176 21.22956822 -5.45035843 18.61764109 -7.7265625 15.91015625 C-11.93564696 12.20472293 -14.88313252 10.85724702 -20.4921875 10.42578125 C-27.94032578 10.9223238 -32.83298325 13.67226732 -38.2421875 18.67578125 C-42.2021875 16.03578125 -46.1621875 13.39578125 -50.2421875 10.67578125 C-46.84999385 3.89139395 -41.81457282 -0.05417069 -34.7421875 -2.76171875 C-23.6212778 -6.02760616 -10.16967724 -6.00613342 0 0 Z M-32.7421875 39.42578125 C-34.8351613 42.56524194 -35.17629695 44.92001976 -35.2421875 48.67578125 C-33.89072989 52.17367154 -32.62397248 53.42415024 -29.4921875 55.48828125 C-24.27499008 57.39456492 -20.23744301 57.3483275 -15.1796875 55.11328125 C-10.49278168 52.52362901 -6.20690583 48.9596569 -4.65234375 43.66796875 C-4.30576836 41.55776417 -4.30576836 41.55776417 -4.2421875 38.67578125 C-13.87660129 33.85857435 -23.61017993 33.03337595 -32.7421875 39.42578125 Z " fill="#03301D" transform="translate(246.2421875,48.32421875)"/>
<path d="M0 0 C5.94 0 11.88 0 18 0 C21.34689381 7.66082046 24.68024261 15.32738053 28 23 C28.41540039 23.95890137 28.83080078 24.91780273 29.25878906 25.90576172 C30.38720724 28.51784084 31.50759132 31.13319556 32.625 33.75 C32.96724609 34.54059814 33.30949219 35.33119629 33.66210938 36.14575195 C36 41.65449787 36 41.65449787 36 45 C36.66 45 37.32 45 38 45 C38.13317627 44.48840332 38.26635254 43.97680664 38.40356445 43.44970703 C40.95229215 34.3258195 44.63415874 25.64103002 48.1875 16.875 C48.8487102 15.23453734 49.50952082 13.59391356 50.16992188 11.953125 C51.77461543 7.96655882 53.38745543 3.98343244 55 0 C61.27 0 67.54 0 74 0 C69.95371648 10.85393607 65.37855147 21.41313482 60.6875 32 C59.08150677 35.6359142 57.4779411 39.27289558 55.875 42.91015625 C55.47000778 43.82861832 55.06501556 44.74708038 54.64775085 45.69337463 C51.88360731 51.97009541 49.1496404 58.25923922 46.4375 64.55859375 C46.07598343 65.39790436 45.71446686 66.23721497 45.34199524 67.10195923 C43.62907524 71.0811963 41.92015168 75.0621038 40.21557617 79.04492188 C37.02361228 86.48048506 33.71962661 93.80872189 30 101 C24.39 101 18.78 101 13 101 C15.60858039 92.45064578 19.37796248 84.62426347 23.32421875 76.61914062 C24.05318359 75.08483398 24.05318359 75.08483398 24.796875 73.51953125 C25.24385742 72.60276611 25.69083984 71.68600098 26.15136719 70.74145508 C27.98917735 64.8045246 25.21777976 59.72645634 22.75390625 54.34765625 C22.26324928 53.25389175 22.26324928 53.25389175 21.76268005 52.13803101 C21.06334412 50.58111472 20.3608689 49.02560534 19.65551758 47.47140503 C18.5560905 45.04837409 17.46527043 42.62164282 16.37695312 40.19360352 C14.92969761 36.96552496 13.47996589 33.73858225 12.02783203 30.51269531 C9.32348607 24.50004178 6.64856832 18.47496294 4 12.4375 C3.58564697 11.50623291 3.17129395 10.57496582 2.74438477 9.61547852 C2.37498779 8.77170654 2.00559082 7.92793457 1.625 7.05859375 C1.30789063 6.33986084 0.99078125 5.62112793 0.6640625 4.88061523 C0 3 0 3 0 0 Z " fill="#03301D" transform="translate(400,46)"/>
<path d="M0 0 C5.01144208 4.12051904 8.7825969 9.53564326 10 16 C10.08526747 17.74083689 10.11775578 19.48462032 10.11352539 21.22753906 C10.11341209 22.78870453 10.11341209 22.78870453 10.11329651 24.38140869 C10.10813522 25.49820007 10.10297394 26.61499146 10.09765625 27.765625 C10.0962413 28.91415955 10.09482635 30.06269409 10.09336853 31.24603271 C10.08777143 34.91404831 10.07521944 38.58200285 10.0625 42.25 C10.05748463 44.73697829 10.05292178 47.22395753 10.04882812 49.7109375 C10.03780295 55.80731519 10.02054027 61.90364724 10 68 C4.72 68 -0.56 68 -6 68 C-6.01458252 66.67347412 -6.02916504 65.34694824 -6.04418945 63.98022461 C-6.10234122 59.0393636 -6.17957334 54.09895028 -6.26245117 49.15844727 C-6.29562117 47.02375578 -6.32367758 44.88897827 -6.34643555 42.75415039 C-6.38012717 39.67817669 -6.43245103 36.60298574 -6.48828125 33.52734375 C-6.49467117 32.57915268 -6.5010611 31.63096161 -6.50764465 30.65403748 C-6.64678546 24.3247412 -7.3245615 19.08704443 -11.625 14.125 C-16.70182114 11.72018999 -21.38435118 11.54223283 -26.75 13.0625 C-31.76510017 16.05227125 -34.39001353 19.00943315 -36.11083984 24.625 C-37.16779114 29.18914941 -37.34761036 33.64242635 -37.4140625 38.3125 C-37.43342865 39.16682617 -37.4527948 40.02115234 -37.4727478 40.90136719 C-37.5320053 43.60081338 -37.57871122 46.30030349 -37.625 49 C-37.66322946 50.84246539 -37.70228399 52.68491386 -37.7421875 54.52734375 C-37.83766176 59.01808993 -37.92188873 63.50891962 -38 68 C-43.28 68 -48.56 68 -54 68 C-54 44.9 -54 21.8 -54 -2 C-48.72 -2 -43.44 -2 -38 -2 C-37.67 0.31 -37.34 2.62 -37 5 C-36.5875 4.60167969 -36.175 4.20335937 -35.75 3.79296875 C-25.77150006 -5.36141401 -11.83001857 -7.58906852 0 0 Z " fill="#03301D" transform="translate(530,48)"/>
<path d="M0 0 C4.03534194 2.91073845 7.23705448 5.85558172 10 10 C10.03515625 12.015625 10.03515625 12.015625 9 14 C6.05859375 15.484375 6.05859375 15.484375 2.4375 16.75 C1.23996094 17.17796875 0.04242188 17.6059375 -1.19140625 18.046875 C-2.11824219 18.36140625 -3.04507813 18.6759375 -4 19 C-4.59167969 18.21238281 -5.18335938 17.42476562 -5.79296875 16.61328125 C-9.33621986 12.41782108 -13.1847311 11.19108094 -18.5625 10.625 C-22.42729308 11.04661379 -24.79849317 11.78943576 -28 14 C-28.96906827 16.58414426 -28.96906827 16.58414426 -29 19 C-26.17319725 21.33368991 -23.83636592 22.54396902 -20.296875 23.46484375 C-19.39839844 23.70783203 -18.49992187 23.95082031 -17.57421875 24.20117188 C-16.64222656 24.44416016 -15.71023437 24.68714844 -14.75 24.9375 C-4.64275293 27.57448218 3.95860182 29.98742238 10 39 C12.67760177 44.23878606 12.24854897 49.38152961 11 55 C7.91886126 61.16227749 3.31659504 65.6134493 -3.02734375 68.265625 C-9.41572742 70.3826623 -15.28101304 71.79780179 -22 71 C-22.72574219 70.9175 -23.45148438 70.835 -24.19921875 70.75 C-32.91734828 69.28937097 -40.19144082 64.61015159 -45.84375 57.90625 C-47.36522655 55.39786975 -48.15124137 52.79775992 -49 50 C-46.90163996 48.96728358 -44.79609109 47.94916283 -42.6875 46.9375 C-41.51574219 46.36902344 -40.34398437 45.80054688 -39.13671875 45.21484375 C-36 44 -36 44 -33 45 C-32.443125 45.928125 -31.88625 46.85625 -31.3125 47.8125 C-28.07448245 52.27571338 -24.37572248 54.43737959 -18.9140625 55.34765625 C-14.26924982 55.55231275 -10.78240236 54.67535777 -7 52 C-5.6740144 49.62116511 -5.6740144 49.62116511 -6 47 C-8.89948516 43.39467358 -11.53393281 42.21928189 -15.9375 41 C-17.08476562 40.66613281 -18.23203125 40.33226562 -19.4140625 39.98828125 C-21.75802971 39.34228593 -24.10693884 38.71389504 -26.4609375 38.10546875 C-34.31694571 35.95376487 -40.63622827 33.24122572 -45.17578125 26.16796875 C-47.28591465 20.61761787 -47.05567023 13.84698467 -45.0078125 8.32421875 C-41.06443319 1.69622246 -35.31198064 -1.2738847 -28.13671875 -3.60546875 C-18.64050117 -5.3588837 -8.52312789 -4.68363578 0 0 Z " fill="#03301D" transform="translate(181,48)"/>
<path d="M0 0 C-1.32 4.62 -2.64 9.24 -4 14 C-5.876875 13.896875 -7.75375 13.79375 -9.6875 13.6875 C-13.74824544 13.71623169 -15.60840291 13.77732715 -19.1875 15.8125 C-21.86898655 20.52821772 -21.80474706 24.59800202 -22 30 C-16.06 30 -10.12 30 -4 30 C-4 34.95 -4 39.9 -4 45 C-9.94 45 -15.88 45 -22 45 C-22 63.15 -22 81.3 -22 100 C-27.61 100 -33.22 100 -39 100 C-39 81.85 -39 63.7 -39 45 C-42.96 45 -46.92 45 -51 45 C-51 40.05 -51 35.1 -51 30 C-47.04 30 -43.08 30 -39 30 C-39.061875 28.39125 -39.12375 26.7825 -39.1875 25.125 C-39.14212408 16.28803898 -37.33116016 9.16572828 -31.0703125 2.6953125 C-22.25245891 -4.52534497 -9.9091779 -5.40500613 0 0 Z " fill="#03301D" transform="translate(312,16)"/>
<path d="M0 0 C5.61 0 11.22 0 17 0 C17 33.66 17 67.32 17 102 C11.39 102 5.78 102 0 102 C0 68.34 0 34.68 0 0 Z " fill="#03301D" transform="translate(381,14)"/>
<path d="M0 0 C3.16432295 2.37324221 5.2071983 4.63810348 7.5 7.875 C7.5 8.865 7.5 9.855 7.5 10.875 C5.8962669 11.52190922 4.29199694 12.16748764 2.6875 12.8125 C1.34751953 13.35197266 1.34751953 13.35197266 -0.01953125 13.90234375 C-1.8270909 14.61113486 -3.65807409 15.2610247 -5.5 15.875 C-5.89832031 15.38386719 -6.29664063 14.89273438 -6.70703125 14.38671875 C-9.0121755 12.44316575 -10.2196719 12.558464 -13.1875 12.6875 C-14.39986328 12.72810547 -14.39986328 12.72810547 -15.63671875 12.76953125 C-16.25160156 12.80433594 -16.86648437 12.83914062 -17.5 12.875 C-17.5 14.195 -17.5 15.515 -17.5 16.875 C-16.48679687 17.10574219 -15.47359375 17.33648437 -14.4296875 17.57421875 C-0.91877416 20.80640611 -0.91877416 20.80640611 3.5 25.875 C5.15074833 30.82724498 5.08985597 35.12713721 3.0625 39.9375 C-0.1045588 45.74189603 -5.62763794 48.5304901 -11.4375 51.25 C-18.59684478 52.71109077 -26.10739465 52.80891099 -32.5 48.875 C-34.80673454 46.74570658 -36.8127197 44.5273535 -38.5 41.875 C-38.5 41.215 -38.5 40.555 -38.5 39.875 C-36.92466914 39.00616294 -35.33935491 38.15540932 -33.75 37.3125 C-32.86828125 36.83683594 -31.9865625 36.36117187 -31.078125 35.87109375 C-28.25880586 34.78181136 -27.23549216 34.6916023 -24.5 35.875 C-23.84 36.535 -23.18 37.195 -22.5 37.875 C-18.36002433 38.0721417 -15.42296433 38.18265478 -11.5 36.875 C-11.5 35.555 -11.5 34.235 -11.5 32.875 C-12.59699219 32.64425781 -13.69398437 32.41351563 -14.82421875 32.17578125 C-16.27886273 31.84731325 -17.73327826 31.51783235 -19.1875 31.1875 C-19.90873047 31.03861328 -20.62996094 30.88972656 -21.37304688 30.73632812 C-26.38862676 29.56831637 -29.17130931 28.01836069 -32.5 23.875 C-33.74401851 20.14294448 -34.01681018 16.75107635 -33.5 12.875 C-30.57514461 7.02528922 -25.75671494 2.20565223 -19.6796875 -0.27734375 C-13.25691921 -1.98955594 -6.33383416 -2.03587526 0 0 Z " fill="#073420" transform="translate(77.5,44.125)"/>
</svg>
