<?xml version="1.0" encoding="UTF-8"?>
<svg version="1.1" xmlns="http://www.w3.org/2000/svg" width="360" height="150">
<path d="M0 0 C1.56050603 2.46395689 2.10183652 4.30677553 1.67578125 7.20703125 C-0.54108453 15.34408193 -4.46803689 24.55807304 -12 29 C-15.4567502 30.09604275 -17.56416285 29.95157435 -21 29 C-21.391875 30.11375 -21.78375 31.2275 -22.1875 32.375 C-27.80469942 47.26587771 -27.80469942 47.26587771 -33 51 C-35.91740539 52.02109189 -37.33377533 52.24058113 -40.25 51.1875 C-42 50 -42 50 -43 48 C-43.804375 48.66 -44.60875 49.32 -45.4375 50 C-49.40060201 52.67674909 -53.36481739 52.56549228 -58 52 C-58.66 51.67 -59.32 51.34 -60 51 C-61.36125 51.495 -61.36125 51.495 -62.75 52 C-66.40069474 53.12329069 -68.35584457 53.05275601 -72 52 C-73.875 50.4375 -73.875 50.4375 -75 49 C-75.825 49.495 -76.65 49.99 -77.5 50.5 C-81.85179738 52.36505602 -84.2995569 52.37906799 -89 52 C-90.34090759 51.34870203 -91.67592331 50.68486725 -93 50 C-95.86012375 50.30106566 -98.14017379 51.05606952 -100.8125 52.125 C-104.13143591 53.03608044 -106.48463934 52.84631011 -109.8515625 52.28515625 C-112.16865446 51.97761495 -114.35266329 51.99656607 -116.6875 52.0625 C-120.30262128 52.13082703 -122.64213914 51.34314434 -126 50 C-127.34977849 50.63270867 -128.68352881 51.30062468 -130 52 C-132.6875 51.75 -132.6875 51.75 -135 51 C-136.43304064 48.13391871 -136.30644155 46.18699217 -136 43 C-133.71274624 38.67963179 -131.52914866 35.94106371 -127 34 C-123.6875 33.8125 -123.6875 33.8125 -121 34 C-120.21342762 37.14628953 -119.95359817 40.02507251 -120 43.25 C-120 44.4875 -120 45.725 -120 47 C-118.81575674 48.41577477 -118.81575674 48.41577477 -115.4375 48.0625 C-113.7359375 48.0315625 -113.7359375 48.0315625 -112 48 C-112.02320312 47.25234375 -112.04640625 46.5046875 -112.0703125 45.734375 C-112.09738281 44.25710937 -112.09738281 44.25710937 -112.125 42.75 C-112.14820312 41.77546875 -112.17140625 40.8009375 -112.1953125 39.796875 C-111.99862781 36.9803502 -111.44568916 35.39050964 -110 33 C-109.01 33 -108.02 33 -107 33 C-107.33 38.28 -107.66 43.56 -108 49 C-105.69 48.34 -103.38 47.68 -101 47 C-99.86649466 44.98330173 -99.86649466 44.98330173 -99 43 C-98.2575 42.855625 -97.515 42.71125 -96.75 42.5625 C-92.10690637 41.6127763 -89.05178223 38.4413312 -86.3125 34.6875 C-85.879375 34.130625 -85.44625 33.57375 -85 33 C-84.01 33 -83.02 33 -82 33 C-82.33 37.95 -82.66 42.9 -83 48 C-77.36893239 45.5797509 -77.36893239 45.5797509 -75 43 C-74.32348793 40.80295489 -74.32348793 40.80295489 -73.875 38.375 C-73.62363281 37.14910156 -73.62363281 37.14910156 -73.3671875 35.8984375 C-73.24601562 35.27195313 -73.12484375 34.64546875 -73 34 C-71.68 33.67 -70.36 33.34 -69 33 C-69.33 38.28 -69.66 43.56 -70 49 C-67.36 48.34 -64.72 47.68 -62 47 C-62.061875 45.80375 -62.12375 44.6075 -62.1875 43.375 C-62.1875 39.24285472 -61.26421886 36.52211822 -59 33 C-55.77208445 30.8480563 -54.71599191 30.79913557 -51 31 C-50.25 33.125 -50.25 33.125 -50 36 C-51.9608405 39.50150089 -54.1858243 42.1858243 -57 45 C-57 45.66 -57 46.32 -57 47 C-52.87515464 47.39284241 -50.01388109 47.07724671 -46.6171875 44.578125 C-43.70844796 41.73964487 -41.53555966 38.34930129 -39.2265625 35.01953125 C-36.16111596 30.86235551 -32.68770941 27.22719087 -29.1015625 23.5078125 C-25.60995431 19.34124659 -24.74047095 15.30670845 -24 10 C-26.64 10.33 -29.28 10.66 -32 11 C-32.495 9.515 -32.495 9.515 -33 8 C-31.7625 7.566875 -30.525 7.13375 -29.25 6.6875 C-26.05909498 5.50359531 -23.66007502 4.14852213 -21 2 C-20.34 2 -19.68 2 -19 2 C-19 5.3 -19 8.6 -19 12 C-18.32453125 11.30132812 -17.6490625 10.60265625 -16.953125 9.8828125 C-15.61507812 8.51769531 -15.61507812 8.51769531 -14.25 7.125 C-13.36828125 6.22007813 -12.4865625 5.31515625 -11.578125 4.3828125 C-7.69270041 0.79173826 -5.27731727 -0.29318429 0 0 Z M-13 11 C-13.75925781 11.68320312 -14.51851563 12.36640625 -15.30078125 13.0703125 C-16.02652344 13.74835937 -16.75226563 14.42640625 -17.5 15.125 C-18.1703125 15.74632812 -18.840625 16.36765625 -19.53125 17.0078125 C-21.39317362 19.53329401 -21.44310928 20.92844701 -21 24 C-19.14710852 26.31346333 -19.14710852 26.31346333 -16.25 26.0625 C-10.91868189 24.31956908 -8.3700943 20.54881035 -5.76953125 15.7109375 C-3.99726259 11.88488457 -2.54356037 8.21259288 -2 4 C-6.93436344 4 -9.53186845 7.74670846 -13 11 Z M-26 25 C-27.60960555 26.72436166 -29.21264034 28.45413328 -30.8125 30.1875 C-31.70582031 31.15042969 -32.59914063 32.11335938 -33.51953125 33.10546875 C-37.56223902 37.82302223 -39.43940576 40.70185082 -39 47 C-37.68 47.33 -36.36 47.66 -35 48 C-29.0918314 42.22610796 -26.58788797 36.1037041 -25 28 C-25.33 27.01 -25.66 26.02 -26 25 Z M-129 39.6875 C-131.05392248 42.06234786 -132.01414095 44.04242286 -133 47 C-131.68 47 -130.36 47 -129 47 C-126.65057354 44.81327138 -126.65057354 44.81327138 -125 42 C-125 40.68 -125 39.36 -125 38 C-127.18136995 37.78504302 -127.18136995 37.78504302 -129 39.6875 Z M-87 41 C-88.35827971 42.64639965 -89.69254251 44.31295807 -91 46 C-88.525 46.99 -88.525 46.99 -86 48 C-86 45.69 -86 43.38 -86 41 C-86.33 41 -86.66 41 -87 41 Z " fill="#000000" transform="translate(210,39)"/>
<path d="M0 0 C0.5775 0.37125 1.155 0.7425 1.75 1.125 C1.75 2.115 1.75 3.105 1.75 4.125 C5.215 3.63 5.215 3.63 8.75 3.125 C8.83159574 7.28638263 8.73248524 11.0722484 7.75 15.125 C9.4 14.795 11.05 14.465 12.75 14.125 C12.853125 12.908125 12.95625 11.69125 13.0625 10.4375 C13.53219723 6.69976849 14.42365284 4.16714629 16.75 1.125 C19.97791555 -1.0269437 21.03400809 -1.07586443 24.75 -0.875 C25.42693777 3.63791848 24.48930443 5.93388571 21.875 9.5 C20.2578125 11.5859375 20.2578125 11.5859375 18.75 13.125 C18.09 13.125 17.43 13.125 16.75 13.125 C16.75 13.785 16.75 14.445 16.75 15.125 C22.19543547 15.84159849 22.19543547 15.84159849 26.9921875 13.56640625 C28.38767052 12.29615889 29.75425762 10.99323538 31.0859375 9.65625 C32.75 8.125 32.75 8.125 34.75 8.125 C35.03875 7.485625 35.3275 6.84625 35.625 6.1875 C36.75 4.125 36.75 4.125 38.75 3.125 C41.0829866 3.08477609 43.41706666 3.08179753 45.75 3.125 C46.41 4.775 47.07 6.425 47.75 8.125 C43.75 8.125 43.75 8.125 41.75 7.125 C38.26167694 9.33427127 37.01941497 11.21097051 35.75 15.125 C41.1003559 14.55478066 46.42787852 13.91765639 51.75 13.125 C51.70875 11.8875 51.6675 10.65 51.625 9.375 C51.61341709 6.10862038 51.8931298 3.9103053 53.75 1.125 C54.74 1.125 55.73 1.125 56.75 1.125 C56.42 5.745 56.09 10.365 55.75 15.125 C60.39045375 16.22305807 60.39045375 16.22305807 63.75 16.125 C63.6675 15.25875 63.585 14.3925 63.5 13.5 C63.81081363 9.30401595 65.15624904 7.38571549 67.75 4.125 C70.74870273 2.12586485 72.28840765 1.70193206 75.75 1.125 C76.6575 0.91875 77.565 0.7125 78.5 0.5 C79.2425 0.37625 79.985 0.2525 80.75 0.125 C82.64885096 2.02385096 81.87367506 4.69747903 81.8828125 7.21484375 C81.75 9.125 81.75 9.125 80.75 11.125 C84.87438075 10.47993804 84.87438075 10.47993804 88.75 9.125 C90.36147442 6.13071856 90.36147442 6.13071856 90.75 3.125 C91.41 3.125 92.07 3.125 92.75 3.125 C92.98509196 7.94438524 92.20184478 11.58798506 90.75 16.125 C96.09673609 12.80135324 97.22549821 8.92554339 98.75 3.125 C99.74 3.125 100.73 3.125 101.75 3.125 C102.245 9.56 102.245 9.56 102.75 16.125 C104.73 15.465 106.71 14.805 108.75 14.125 C109.08 13.135 109.41 12.145 109.75 11.125 C110.430625 11.08375 111.11125 11.0425 111.8125 11 C117.07372849 9.43282556 120.75292569 5.62061147 123.75 1.125 C125.73 1.62 125.73 1.62 127.75 2.125 C127.09 6.745 126.43 11.365 125.75 16.125 C131.31518682 13.7376913 131.31518682 13.7376913 133.4375 11.4375 C133.870625 11.004375 134.30375 10.57125 134.75 10.125 C135.74 10.125 136.73 10.125 137.75 10.125 C136.39717831 14.55241644 134.51701112 16.48809221 130.75 19.125 C128.42404054 20.28797973 126.96276769 20.29100691 124.375 20.3125 C123.21871094 20.33376953 123.21871094 20.33376953 122.0390625 20.35546875 C119.75 20.125 119.75 20.125 117.90234375 19.078125 C113.83892173 17.27871489 109.26989496 18.61844372 104.96484375 19.12890625 C101.75 19.125 101.75 19.125 99.81640625 17.65234375 C99.46449219 17.14832031 99.11257813 16.64429687 98.75 16.125 C97.698125 17.115 97.698125 17.115 96.625 18.125 C93.31539771 20.42733203 91.68774177 20.49130156 87.75 20.125 C86.76 17.155 86.76 17.155 85.75 14.125 C84.14402675 14.57696245 82.54027492 15.03682327 80.9375 15.5 C80.04417969 15.75523438 79.15085937 16.01046875 78.23046875 16.2734375 C75.54532104 17.07766661 75.54532104 17.07766661 72.75 19.125 C69.93650698 19.69228271 67.21394058 20.14033692 64.375 20.5 C63.61960937 20.61988281 62.86421875 20.73976563 62.0859375 20.86328125 C57.93708332 21.39276788 56.35049732 21.51246742 52.7109375 19.1640625 C51.74027344 18.15472656 51.74027344 18.15472656 50.75 17.125 C50.04101562 17.44855469 49.33203125 17.77210937 48.6015625 18.10546875 C45.59471513 19.18051966 43.30584414 19.42435602 40.125 19.4375 C39.18398437 19.45425781 38.24296875 19.47101563 37.2734375 19.48828125 C34.38187653 19.0720039 33.52449192 18.38182026 31.75 16.125 C30.925 16.785 30.1 17.445 29.25 18.125 C25.33888608 20.74479602 22.3750086 20.57991888 17.75 20.125 C16.76 19.465 15.77 18.805 14.75 18.125 C12.77975444 18.17320409 12.77975444 18.17320409 10.75 18.625 C7.20300743 19.32365005 7.01804444 19.30369629 3.75 17.125 C3.45703125 14.9609375 3.45703125 14.9609375 3.5625 12.5 C3.58957031 11.68273437 3.61664063 10.86546875 3.64453125 10.0234375 C3.67933594 9.39695312 3.71414062 8.77046875 3.75 8.125 C2.43 8.125 1.11 8.125 -0.25 8.125 C-0.43175781 8.75148438 -0.61351562 9.37796875 -0.80078125 10.0234375 C-1.05214844 10.84070313 -1.30351562 11.65796875 -1.5625 12.5 C-1.80613281 13.31210938 -2.04976562 14.12421875 -2.30078125 14.9609375 C-3.25 17.125 -3.25 17.125 -6.25 19.125 C-7.24 19.125 -8.23 19.125 -9.25 19.125 C-9.25 15.125 -9.25 15.125 -7.8125 13.625 C-7.296875 13.13 -6.78125 12.635 -6.25 12.125 C-5.35417827 10.12839546 -5.35417827 10.12839546 -5.25 8.125 C-5.91 7.465 -6.57 6.805 -7.25 6.125 C-7.125 3.625 -7.125 3.625 -6.25 1.125 C-3.80299775 -0.81572592 -2.94395499 -1.14487138 0 0 Z M18.75 5.125 C18.75 8.125 18.75 8.125 18.75 8.125 Z M77.75 5.125 C77.42 6.445 77.09 7.765 76.75 9.125 C77.41 7.805 78.07 6.485 78.75 5.125 C78.42 5.125 78.09 5.125 77.75 5.125 Z M69.6875 7.8125 C67.57124375 10.33835423 67.10880982 11.89571161 66.75 15.125 C68.40614657 15.50718767 70.07457024 15.83895102 71.75 16.125 C73.33272601 14.54227399 73.09735747 12.74465997 73.3125 10.5625 C73.39628906 9.73621094 73.48007812 8.90992187 73.56640625 8.05859375 C73.62699219 7.42050781 73.68757813 6.78242187 73.75 6.125 C71.56383982 5.91392074 71.56383982 5.91392074 69.6875 7.8125 Z M120.1875 11.5 C118.52914204 13.01307063 118.52914204 13.01307063 118.75 15.125 C120.07 15.455 121.39 15.785 122.75 16.125 C122.75 14.145 122.75 12.165 122.75 10.125 C121.52822672 10.01489535 121.52822672 10.01489535 120.1875 11.5 Z " fill="#000000" transform="translate(205.25,70.875)"/>
<path d="M0 0 C2 2 2 2 2.5625 5.125 C1.77040916 10.58162581 -1.16528282 13.22965457 -5 17 C-5.495 17.495 -5.495 17.495 -6 18 C-5.071875 18.433125 -4.14375 18.86625 -3.1875 19.3125 C1.58385093 21.83850932 1.58385093 21.83850932 3 24 C4.15993415 28.97114637 4.51046637 32.47210658 2.15234375 37.19921875 C-0.93335248 42.02127285 -4.53142713 46.89274918 -10 49 C-14.29909896 49.74892176 -18.32735424 49.98072396 -22.171875 47.7265625 C-24.60653736 45.66414191 -26.56553258 43.86893484 -28 41 C-28.13415472 38.3276379 -28.04318541 35.67749512 -28 33 C-26.35 33.33 -24.7 33.66 -23 34 C-23.2475 34.53625 -23.495 35.0725 -23.75 35.625 C-24.13964724 39.32664876 -22.20853009 41.16046131 -20 44 C-17.13391871 45.43304064 -15.18699217 45.30644155 -12 45 C-7.07713166 42.3416511 -3.51715391 39.03430782 -1 34 C-0.49968794 30.58428147 -0.49968794 30.58428147 -1 27 C-4.35386108 23.64613892 -6.7341255 22.03555827 -11.4765625 21.90234375 C-12.85940867 21.90899205 -14.24223728 21.92091705 -15.625 21.9375 C-16.68460938 21.94426758 -16.68460938 21.94426758 -17.765625 21.95117188 C-19.51045275 21.96296125 -21.255237 21.98089676 -23 22 C-23.33209473 22.64549805 -23.66418945 23.29099609 -24.00634766 23.95605469 C-25.53015403 26.89584346 -27.07722447 29.82276496 -28.625 32.75 C-29.14707031 33.76578125 -29.66914062 34.7815625 -30.20703125 35.828125 C-35.2976222 45.38083889 -35.2976222 45.38083889 -41 48 C-44.6875 48.0625 -44.6875 48.0625 -48 47 C-50.73883753 43.73106489 -51 42.3339145 -51 38 C-49.125 38.25 -49.125 38.25 -47 39 C-45.75 41.0625 -45.75 41.0625 -45 43 C-41.25391844 42.61723547 -41.25391844 42.61723547 -38.48046875 40.2421875 C-37.84044922 39.07042969 -37.84044922 39.07042969 -37.1875 37.875 C-36.6821875 36.97394531 -36.176875 36.07289062 -35.65625 35.14453125 C-34.47338105 32.89875412 -33.30769951 30.64840926 -32.15625 28.38671875 C-25.36750494 15.13672588 -16.90852474 -0.92228317 0 0 Z M-19 14 C-20.18637272 16.12066524 -20.18637272 16.12066524 -21 18 C-13.74519563 17.96641294 -9.22592059 16.04857034 -4 11 C-1.26888775 7.91668549 -1 7.35022965 -1 3 C-8.6740328 2.09717261 -14.36759236 8.5557271 -19 14 Z " fill="#000000" transform="translate(70,41)"/>
</svg>
