<?xml version="1.0" encoding="UTF-8"?>
<svg version="1.1" xmlns="http://www.w3.org/2000/svg" width="256" height="78">
<path d="M0 0 C1.93742341 -0.02703381 3.87495479 -0.04641125 5.8125 -0.0625 C6.89144531 -0.07410156 7.97039062 -0.08570313 9.08203125 -0.09765625 C12 -0 12 -0 15 1 C15.33 8.26 15.66 15.52 16 23 C17.65 22.34 19.3 21.68 21 21 C23.75078884 20.08307039 25.35948913 19.89113917 28.1875 19.9375 C30.0746875 19.9684375 30.0746875 19.9684375 32 20 C32 20.66 32 21.32 32 22 C32.60328125 22.00257812 33.2065625 22.00515625 33.828125 22.0078125 C36.33423069 22.12907568 38.57257809 22.35521605 41 23 C43.25 25.6875 43.25 25.6875 45 29 C45.845625 29.99 46.69125 30.98 47.5625 32 C53.24319046 38.99161903 54.428508 45.75868779 53.8203125 54.6171875 C52.94729451 60.33634615 50.8583261 64.35696813 47.4375 68.9921875 C45.93655386 70.95237658 45.93655386 70.95237658 45 73.1953125 C44 75 44 75 41 76 C40.67 76.66 40.34 77.32 40 78 C39.01 77.67 38.02 77.34 37 77 C36.01 77.495 36.01 77.495 35 78 C32.00615207 78.26109139 29.00399479 78.23139941 26 78.25 C25.16726562 78.270625 24.33453125 78.29125 23.4765625 78.3125 C22.67992188 78.31765625 21.88328125 78.3228125 21.0625 78.328125 C20.33160156 78.3374707 19.60070312 78.34681641 18.84765625 78.35644531 C18.23792969 78.23881836 17.62820312 78.12119141 17 78 C16.34 77.01 15.68 76.02 15 75 C14.18789062 75.49113281 14.18789062 75.49113281 13.359375 75.9921875 C10.49280933 77.21664767 8.3547013 77.19892146 5.25 77.125 C4.26515625 77.10695313 3.2803125 77.08890625 2.265625 77.0703125 C1.51796875 77.04710938 0.7703125 77.02390625 0 77 C-1.16470976 73.50587073 -1.12707773 70.76952919 -1.12939453 67.08178711 C-1.13114685 66.38230453 -1.13289917 65.68282196 -1.13470459 64.96214294 C-1.13910521 62.65051796 -1.13619173 60.33896951 -1.1328125 58.02734375 C-1.13348598 56.42216477 -1.13445637 54.81698588 -1.13571167 53.21180725 C-1.13718615 49.84847034 -1.1350418 46.48515999 -1.13037109 43.12182617 C-1.12466936 38.80510568 -1.12795719 34.48844731 -1.13394356 30.17172909 C-1.13755198 26.85782908 -1.13640937 23.54394386 -1.13381577 20.23004341 C-1.13314751 18.63798579 -1.13397139 17.04592684 -1.13629532 15.45387077 C-1.13882692 13.23215025 -1.13497427 11.01053129 -1.12939453 8.78881836 C-1.12859894 7.52323593 -1.12780334 6.2576535 -1.12698364 4.95372009 C-1 2 -1 2 0 0 Z M21 35 C20.01 36.485 20.01 36.485 19 38 C18.360625 38.103125 17.72125 38.20625 17.0625 38.3125 C14.7484896 38.86377683 14.7484896 38.86377683 13.25 41.375 C11.0883411 47.64381081 10.82369816 53.51669612 13.6875 59.5625 C16.0983023 62.10361594 17.70822067 62.96049074 21 64 C21.66 64.66 22.32 65.32 23 66 C23 65.34 23 64.68 23 64 C25.31 64 27.62 64 30 64 C30.33 64.66 30.66 65.32 31 66 C32.70840281 64.36587557 33.93453047 63.13093906 35 61 C35.66 61.33 36.32 61.66 37 62 C39.98129347 56.81514179 41.85139786 51.71995373 40.4921875 45.78125 C39.14784555 41.87558287 38.55955013 40.37303342 35 38 C33.34416775 37.30686092 31.67889021 36.63525576 30 36 C30 35.67 30 35.34 30 35 C28.54257537 34.91903197 27.08387193 34.86082226 25.625 34.8125 C24.40683594 34.76029297 24.40683594 34.76029297 23.1640625 34.70703125 C22.44992188 34.80371094 21.73578125 34.90039062 21 35 Z M24 65 C24 65.33 24 65.66 24 66 C25.65 66 27.3 66 29 66 C29 65.67 29 65.34 29 65 C27.35 65 25.7 65 24 65 Z " fill="#FFFFFF" transform="translate(95,0)"/>
<path d="M0 0 C1.85004223 0.61668074 3.70358993 1.22308949 5.5625 1.8125 C8.48081505 3.23424323 8.62989998 4.17416871 10 7 C11.2684375 7.680625 11.2684375 7.680625 12.5625 8.375 C15 10 15 10 15.75 13 C15.8325 13.99 15.915 14.98 16 16 C16.495 17.485 16.495 17.485 17 19 C17.09467365 21.18584749 17.12988914 23.37460867 17.125 25.5625 C17.12886719 27.29693359 17.12886719 27.29693359 17.1328125 29.06640625 C17 32 17 32 16 34 C7.9682296 35.70523647 -0.55377494 34.95982402 -8.6875 34.5625 C-9.87794922 34.51029297 -11.06839844 34.45808594 -12.29492188 34.40429688 C-15.19697766 34.27609361 -18.09855322 34.14121378 -21 34 C-18.93063422 37.10404867 -16.73397536 39.47107279 -14 42 C-13.34 42 -12.68 42 -12 42 C-11.34386719 42.02320313 -10.68773437 42.04640625 -10.01171875 42.0703125 C-3.75729041 42.23796058 -3.75729041 42.23796058 2 40 C2.99 38.68 3.98 37.36 5 36 C8.3 36.66 11.6 37.32 15 38 C17.28571429 46.42857143 17.28571429 46.42857143 17 51 C16.01 50.34 15.02 49.68 14 49 C13.34 49 12.68 49 12 49 C11.67 49.99 11.34 50.98 11 52 C10.01 52.33 9.02 52.66 8 53 C6.33289654 54.49985609 6.33289654 54.49985609 5 56 C4.01 55.67 3.02 55.34 2 55 C1.01 55.495 1.01 55.495 0 56 C-2.46842431 56.07226066 -4.90781026 56.0928726 -7.375 56.0625 C-8.04789063 56.05798828 -8.72078125 56.05347656 -9.4140625 56.04882812 C-11.27606861 56.03599934 -13.1380384 56.01817533 -15 56 C-16.32 56 -17.64 56 -19 56 C-22.22933452 55.13359318 -23.62465222 54.56302166 -25.5 51.75 C-26.2425 50.38875 -26.2425 50.38875 -27 49 C-27.825 48.05125 -28.65 47.1025 -29.5 46.125 C-35.04714928 39.43825509 -35.64546697 33.46325935 -35.4921875 24.87109375 C-34.71996698 18.79751811 -32.19252616 14.14221975 -29 9 C-28.50113281 8.08476562 -28.00226563 7.16953125 -27.48828125 6.2265625 C-26 4 -26 4 -23 3 C-22.5875 2.525625 -22.175 2.05125 -21.75 1.5625 C-16.15125465 -3.43637978 -6.3237017 -3.45163351 0 0 Z M-12 -1 C-12 -0.67 -12 -0.34 -12 0 C-9.36 0 -6.72 0 -4 0 C-4 -0.33 -4 -0.66 -4 -1 C-6.64 -1 -9.28 -1 -12 -1 Z M-14 12 C-14.66 12.66 -15.32 13.32 -16 14 C-17 15 -18 16 -19 17 C-18.67 17.66 -18.34 18.32 -18 19 C-11.73 19 -5.46 19 1 19 C0.34 17.68 -0.32 16.36 -1 15 C-1.66 15 -2.32 15 -3 15 C-3.33 14.34 -3.66 13.68 -4 13 C-8.455 13.495 -8.455 13.495 -13 14 C-13.33 13.34 -13.66 12.68 -14 12 Z M-12 12 C-12 12.33 -12 12.66 -12 13 C-9.36 13 -6.72 13 -4 13 C-4 12.67 -4 12.34 -4 12 C-6.64 12 -9.28 12 -12 12 Z M1 15 C2 17 2 17 2 17 Z M-20 17 C-19 19 -19 19 -19 19 Z M2 17 C3 19 3 19 3 19 Z M-21 19 C-20 21 -20 21 -20 21 Z M3 19 C4 21 4 21 4 21 Z M-19 20 C-19 20.33 -19 20.66 -19 21 C-12.07 21 -5.14 21 2 21 C2 20.67 2 20.34 2 20 C-4.93 20 -11.86 20 -19 20 Z M-22 31 C-21 34 -21 34 -21 34 Z M-11 43 C-11 43.33 -11 43.66 -11 44 C-8.69 44 -6.38 44 -4 44 C-4 43.67 -4 43.34 -4 43 C-6.31 43 -8.62 43 -11 43 Z " fill="#FEFEFE" transform="translate(214,22)"/>
<path d="M0 0 C4.62 0 9.24 0 14 0 C18.29 11.22 22.58 22.44 27 34 C30.11282771 26.17864655 30.11282771 26.17864655 33.22167969 18.35571289 C35.68807755 12.17416529 38.24930693 6.06052235 41 0 C45.62 0 50.24 0 55 0 C55 17.16 55 34.32 55 52 C54.34 52 53.68 52 53 52 C52.67 37.81 52.34 23.62 52 9 C48.32000547 17.91290116 48.32000547 17.91290116 44.64208984 26.82666016 C42.00966273 33.19531953 39.35991563 39.5563326 36.6640625 45.8984375 C36.17631348 47.04747559 35.68856445 48.19651367 35.18603516 49.38037109 C34 52 34 52 33 53 C30.98035801 53.07244053 28.95832876 53.08377188 26.9375 53.0625 C25.83277344 53.05347656 24.72804688 53.04445312 23.58984375 53.03515625 C22.73519531 53.02355469 21.88054688 53.01195312 21 53 C20.01 51.02 19.02 49.04 18 47 C17.34 47 16.68 47 16 47 C14.48102406 44.53166411 13.99507174 43.16801955 14.08129883 40.22827148 C13.98972875 36.59214189 13.14804554 34.29600013 11.69921875 30.97265625 C10.97508789 29.28946289 10.97508789 29.28946289 10.23632812 27.57226562 C9.72521484 26.41404297 9.21410156 25.25582031 8.6875 24.0625 C8.18798828 22.90814453 7.68847656 21.75378906 7.17382812 20.56445312 C4.61613924 14.6462914 4.61613924 14.6462914 1.97509766 8.76513672 C0.49107703 5.49261386 0 3.70337834 0 0 Z M53 5 C54 7 54 7 54 7 Z M15 40 C16 42 16 42 16 42 Z M16 42 C17 44 17 44 17 44 Z " fill="#3FAAF1" transform="translate(0,24)"/>
<path d="M0 0 C1.32064453 0.03867187 1.32064453 0.03867187 2.66796875 0.078125 C5.55548625 0.27510294 8.35508543 0.6537022 11.1875 1.25 C10.64996904 7.43160604 8.64167612 12.576858 6.1875 18.25 C5.8575 17.26 5.5275 16.27 5.1875 15.25 C3.77068366 15.56182069 2.35405349 15.87448737 0.9375 16.1875 C0.14859375 16.36152344 -0.6403125 16.53554688 -1.453125 16.71484375 C-2.23171875 16.89144531 -3.0103125 17.06804688 -3.8125 17.25 C-4.88757813 17.37568359 -4.88757813 17.37568359 -5.984375 17.50390625 C-8.0249055 18.10682656 -8.0249055 18.10682656 -8.90307617 20.34448242 C-9.99173017 23.82262234 -10.11929658 26.8404022 -10.19140625 30.484375 C-10.20840073 31.16300598 -10.2253952 31.84163696 -10.24290466 32.54083252 C-10.29574753 34.69379558 -10.33623075 36.84674119 -10.375 39 C-10.41892505 41.16744903 -10.46554365 43.33474974 -10.51780701 45.50201416 C-10.56429193 47.45791273 -10.60181758 49.41401807 -10.63891602 51.37011719 C-10.8125 54.25 -10.8125 54.25 -11.8125 55.25 C-15.7725 55.25 -19.7325 55.25 -23.8125 55.25 C-23.8125 37.76 -23.8125 20.27 -23.8125 2.25 C-19.8525 2.25 -15.8925 2.25 -11.8125 2.25 C-11.4825 3.9 -11.1525 5.55 -10.8125 7.25 C-10.1628125 6.3528125 -10.1628125 6.3528125 -9.5 5.4375 C-6.46290468 1.50052459 -5.18095715 -0.15916919 0 0 Z M0.1875 13.25 C0.1875 13.58 0.1875 13.91 0.1875 14.25 C1.8375 14.25 3.4875 14.25 5.1875 14.25 C5.1875 13.92 5.1875 13.59 5.1875 13.25 C3.5375 13.25 1.8875 13.25 0.1875 13.25 Z " fill="#FFFFFF" transform="translate(173.8125,21.75)"/>
<path d="M0 0 C2.14576637 -0.02685938 4.29162645 -0.04633088 6.4375 -0.0625 C7.63246094 -0.07410156 8.82742187 -0.08570312 10.05859375 -0.09765625 C13 0 13 0 14 1 C14.09854422 2.5906331 14.12798694 4.18561477 14.12939453 5.77929688 C14.13254669 6.797052 14.13569885 7.81480713 14.13894653 8.86340332 C14.1369223 9.97066772 14.13489807 11.07793213 14.1328125 12.21875 C14.13376923 13.34696167 14.13472595 14.47517334 14.13571167 15.63757324 C14.13639368 18.02840226 14.13453797 20.41923311 14.13037109 22.81005859 C14.12502316 26.48409151 14.13031543 30.15800217 14.13671875 33.83203125 C14.13605797 36.14843777 14.13477682 38.46484422 14.1328125 40.78125 C14.13483673 41.8885144 14.13686096 42.99577881 14.13894653 44.13659668 C14.13579437 45.15435181 14.13264221 46.17210693 14.12939453 47.22070312 C14.12859894 48.12147583 14.12780334 49.02224854 14.12698364 49.95031738 C14 52 14 52 13 53 C11.00200428 53.09873816 9.00042842 53.12971799 7 53.125 C5.906875 53.12757812 4.81375 53.13015625 3.6875 53.1328125 C1 53 1 53 0 52 C-0.09340434 50.37325222 -0.11745171 48.74245949 -0.11352539 47.11303711 C-0.11344986 46.07203354 -0.11337433 45.03102997 -0.11329651 43.95848083 C-0.10813522 42.8262056 -0.10297394 41.69393036 -0.09765625 40.52734375 C-0.0962413 39.37456436 -0.09482635 38.22178497 -0.09336853 37.03407288 C-0.08775005 33.33518936 -0.07519442 29.63636536 -0.0625 25.9375 C-0.05748738 23.43684983 -0.05292406 20.93619871 -0.04882812 18.43554688 C-0.03777462 12.29034412 -0.02101852 6.14517631 0 0 Z " fill="#FFFFFF" transform="translate(75,24)"/>
<path d="M0 0 C4.29 0 8.58 0 13 0 C13.02464071 7.38728591 13.0428316 14.77454812 13.05493164 22.16186523 C13.05997363 24.67716895 13.06680703 27.19246972 13.07543945 29.70776367 C13.08751094 33.31429775 13.09322949 36.92079323 13.09765625 40.52734375 C13.10281754 41.65961899 13.10797882 42.79189423 13.11329651 43.95848083 C13.11337204 44.99948441 13.11344757 46.04048798 13.11352539 47.11303711 C13.115746 48.03459091 13.11796661 48.95614471 13.12025452 49.90562439 C13 52 13 52 12 53 C8.04 53 4.08 53 0 53 C0 35.51 0 18.02 0 0 Z " fill="#FEFEFE" transform="translate(56,24)"/>
<path d="M0 0 C0.99 0.33 1.98 0.66 3 1 C4.0776058 10.61292792 4.0776058 10.61292792 1.4765625 13.9609375 C-0.4375 15.5 -0.4375 15.5 -2.37109375 16.78125 C-4.31478001 17.99407866 -4.31478001 17.99407866 -5 21 C-6.91864771 20.74357696 -8.83490994 20.46926564 -10.75 20.1875 C-11.81734375 20.03667969 -12.8846875 19.88585937 -13.984375 19.73046875 C-17.08957882 18.9783015 -18.69013709 18.16921552 -21 16 C-22.44306584 12.53664199 -22.01181559 11.03544677 -20.8125 7.4375 C-19.06592134 4.12502324 -17.89474283 2.30989665 -15 0 C-11.8359375 -0.64453125 -11.8359375 -0.64453125 -8.375 -0.8125 C-6.65410156 -0.91498047 -6.65410156 -0.91498047 -4.8984375 -1.01953125 C-2 -1 -2 -1 0 0 Z " fill="#43ADF2" transform="translate(253,57)"/>
<path d="M0 0 C1.299375 0.02900391 1.299375 0.02900391 2.625 0.05859375 C3.49125 0.05988281 4.3575 0.06117187 5.25 0.0625 C8.06372326 0.57618961 8.93929778 1.21854623 10.625 3.49609375 C11.72091859 7.44140067 12.06115133 9.56148376 10.3125 13.30859375 C6.45248838 16.45046367 2.4760399 16.8758272 -2.375 17.49609375 C-5.74818554 12.99851303 -5.89304578 9.9355744 -5.375 4.49609375 C-3.85513452 1.71130796 -3.15193041 0.6583802 0 0 Z " fill="#FEFFFF" transform="translate(59.375,-0.49609375)"/>
<path d="M0 0 C1.32644531 -0.05607422 1.32644531 -0.05607422 2.6796875 -0.11328125 C5.125 0.3125 5.125 0.3125 6.921875 2.0859375 C8.72030623 5.41420308 8.68948122 8.65784592 8.125 12.3125 C6.625 15.3125 6.625 15.3125 5.125 17.3125 C4.465 16.9825 3.805 16.6525 3.125 16.3125 C2.196875 16.374375 1.26875 16.43625 0.3125 16.5 C-3.74886627 16.2610961 -5.13852299 15.28353218 -7.875 12.3125 C-9.14172211 8.59150381 -9.2361493 7.05121449 -7.5 3.5 C-4.98631548 0.11619391 -4.22961164 0.11646757 0 0 Z " fill="#FFFFFF" transform="translate(81.875,-0.3125)"/>
<path d="M0 0 C2.41786717 3.62680076 2.2531123 5.30987979 2.25878906 9.62695312 C2.2622937 10.2955687 2.26579834 10.96418427 2.26940918 11.65306091 C2.27820964 13.86256298 2.27238346 16.07174469 2.265625 18.28125 C2.26697214 19.81677309 2.26891308 21.35229576 2.27142334 22.88781738 C2.27437231 26.10575421 2.27008429 29.32357999 2.26074219 32.54150391 C2.24934772 36.66762379 2.25590841 40.79348348 2.26788712 44.91959381 C2.27511187 48.09029096 2.27281497 51.26092636 2.26763153 54.43162537 C2.26629673 55.95307954 2.26793682 57.4745393 2.27259064 58.99598694 C2.27766603 61.12182481 2.26993176 63.24724047 2.25878906 65.37304688 C2.25719788 66.58311401 2.25560669 67.79318115 2.25396729 69.03991699 C2 72 2 72 0 75 C-0.15378156 65.66426754 -0.30196293 56.32846799 -0.4429636 46.99253368 C-0.50861003 42.65765193 -0.57619685 38.32281841 -0.64819336 33.98803711 C-0.71758198 29.80599794 -0.781906 25.62390892 -0.84269524 21.44173622 C-0.86680064 19.84489417 -0.89274159 18.24807875 -0.92053413 16.65129662 C-0.95910187 14.41755716 -0.99118622 12.18381274 -1.02172852 9.94995117 C-1.04171402 8.67754074 -1.06169952 7.40513031 -1.08229065 6.09416199 C-1 3 -1 3 0 0 Z " fill="#FFFFFF" transform="translate(92,1)"/>
<path d="M0 0 C0.33 0 0.66 0 1 0 C1 15.84 1 31.68 1 48 C0.34 48 -0.32 48 -1 48 C-1.19288706 42.12876199 -1.37150907 36.25732502 -1.53710938 30.38525391 C-1.59539291 28.38904276 -1.65752601 26.39294004 -1.72363281 24.39697266 C-1.81815424 21.52266185 -1.89867874 18.64824143 -1.9765625 15.7734375 C-2.00875885 14.88570648 -2.0409552 13.99797546 -2.0741272 13.08334351 C-2.18947731 8.27751122 -1.89397361 4.51838755 0 0 Z " fill="#FEFEFE" transform="translate(54,28)"/>
<path d="M0 0 C0.66 1.32 1.32 2.64 2 4 C2.61875 3.814375 3.2375 3.62875 3.875 3.4375 C6 3 6 3 8 4 C8 3.34 8 2.68 8 2 C8.99 2.33 9.98 2.66 11 3 C10.649375 3.598125 10.29875 4.19625 9.9375 4.8125 C8.66695302 7.10813214 8.66695302 7.10813214 10 10 C12.97 10.33 15.94 10.66 19 11 C19.66 8.69 20.32 6.38 21 4 C22.13555804 6.78727882 22.08596222 7.79369067 20.90625 10.625 C19 13 19 13 16.08203125 13.48828125 C15.00308594 13.43027344 13.92414062 13.37226562 12.8125 13.3125 C11.72582031 13.26738281 10.63914062 13.22226563 9.51953125 13.17578125 C8.27236328 13.08876953 8.27236328 13.08876953 7 13 C6.01 11.02 5.02 9.04 4 7 C3.34 7 2.68 7 2 7 C0.5393715 4.35261084 0 3.10551666 0 0 Z " fill="#1FADF1" transform="translate(14,64)"/>
<path d="M0 0 C4.62 0 9.24 0 14 0 C13.01 2.97 12.02 5.94 11 9 C9.68 9 8.36 9 7 9 C7 6.36 7 3.72 7 1 C4.69 1.33 2.38 1.66 0 2 C0 1.34 0 0.68 0 0 Z M-1 2 C-0.67 2.99 -0.34 3.98 0 5 C-0.99 5.495 -0.99 5.495 -2 6 C-1.67 4.68 -1.34 3.36 -1 2 Z " fill="#50C0EF" transform="translate(41,24)"/>
<path d="M0 0 C0.33 0 0.66 0 1 0 C1 16.83 1 33.66 1 51 C0.67 51 0.34 51 0 51 C0 34.17 0 17.34 0 0 Z " fill="#FFFFFF" transform="translate(90,25)"/>
<path d="M0 0 C0.33 0 0.66 0 1 0 C1 16.83 1 33.66 1 51 C0.67 51 0.34 51 0 51 C0 34.17 0 17.34 0 0 Z " fill="#FFFFFF" transform="translate(73,25)"/>
<path d="M0 0 C0.33 0 0.66 0 1 0 C1 16.83 1 33.66 1 51 C0.67 51 0.34 51 0 51 C0 34.17 0 17.34 0 0 Z " fill="#FFFFFF" transform="translate(70,25)"/>
<path d="M0 0 C0.66 0 1.32 0 2 0 C2.10824843 1.6026782 2.18570645 3.20745748 2.25 4.8125 C2.29640625 5.70582031 2.3428125 6.59914063 2.390625 7.51953125 C2 10 2 10 -0.015625 11.82421875 C-0.67046875 12.21222656 -1.3253125 12.60023437 -2 13 C-2.66 12.67 -3.32 12.34 -4 12 C-3.45660208 7.43545749 -2.20536179 4.0271824 0 0 Z " fill="#4BB2F4" transform="translate(38,32)"/>
<path d="M0 0 C0.66 1.32 1.32 2.64 2 4 C2.61875 3.814375 3.2375 3.62875 3.875 3.4375 C6 3 6 3 8 4 C8 3.34 8 2.68 8 2 C8.99 2.33 9.98 2.66 11 3 C9.6875 5.9375 9.6875 5.9375 8 9 C7.01 9.33 6.02 9.66 5 10 C4.34 9.01 3.68 8.02 3 7 C2.46375 6.34 1.9275 5.68 1.375 5 C0 3 0 3 0 0 Z " fill="#2390E2" transform="translate(14,64)"/>
<path d="M0 0 C0.33 0 0.66 0 1 0 C1 6.6 1 13.2 1 20 C-2.58007425 16.41992575 -1.96829068 10.87055176 -2 6 C-1.0625 2.25 -1.0625 2.25 0 0 Z " fill="#FDFDFC" transform="translate(54,28)"/>
<path d="M0 0 C0 0.99 0 1.98 0 3 C-0.99 3 -1.98 3 -3 3 C-3.33 3.99 -3.66 4.98 -4 6 C-4.2475 5.360625 -4.495 4.72125 -4.75 4.0625 C-5.81562433 1.81258459 -5.81562433 1.81258459 -8.125 1.25 C-9.053125 1.12625 -9.053125 1.12625 -10 1 C-10 0.67 -10 0.34 -10 0 C-2.25 -1.125 -2.25 -1.125 0 0 Z " fill="#59BCF6" transform="translate(253,57)"/>
<path d="M0 0 C0.33 0 0.66 0 1 0 C1 10.23 1 20.46 1 31 C0.67 31 0.34 31 0 31 C0 20.77 0 10.54 0 0 Z " fill="#FFFFFF" transform="translate(164,45)"/>
<path d="M0 0 C0.99 0.33 1.98 0.66 3 1 C2.01 2.98 1.02 4.96 0 7 C-1.65 7 -3.3 7 -5 7 C-3.75023244 3.34683329 -3.32901247 2.21934164 0 0 Z " fill="#5CC5F7" transform="translate(238,57)"/>
<path d="M0 0 C0.66 0 1.32 0 2 0 C4.09230769 4.43076923 4.09230769 4.43076923 3.625 7.3125 C3.41875 7.869375 3.2125 8.42625 3 9 C2.01 8.67 1.02 8.34 0 8 C0 5.36 0 2.72 0 0 Z " fill="#5DB7FB" transform="translate(48,25)"/>
<path d="M0 0 C0.33 0 0.66 0 1 0 C1 5.61 1 11.22 1 17 C0.67 17 0.34 17 0 17 C-0.19493195 14.72979256 -0.38070418 12.45879711 -0.5625 10.1875 C-0.66691406 8.92292969 -0.77132812 7.65835938 -0.87890625 6.35546875 C-1 3 -1 3 0 0 Z " fill="#FFFFFF" transform="translate(148,59)"/>
<path d="M0 0 C0.33 0 0.66 0 1 0 C1 2.97 1 5.94 1 9 C0.01 9.495 0.01 9.495 -1 10 C-2.46726798 6.18510326 -1.43336419 3.70988378 0 0 Z " fill="#D5EDF6" transform="translate(54,28)"/>
<path d="M0 0 C0.33 0 0.66 0 1 0 C1 5.28 1 10.56 1 16 C-1.14680135 11.70639731 -1.12524159 10.35222258 -0.625 5.75 C-0.51414063 4.67234375 -0.40328125 3.5946875 -0.2890625 2.484375 C-0.19367188 1.66453125 -0.09828125 0.8446875 0 0 Z " fill="#FFFFFF" transform="translate(148,25)"/>
<path d="M0 0 C2.49388574 4.98777148 1.88836125 6.66983248 1 12 C0.67 12 0.34 12 0 12 C0 8.04 0 4.08 0 0 Z " fill="#FFFFFF" transform="translate(133,44)"/>
<path d="M0 0 C0.33 0 0.66 0 1 0 C1.33 4.29 1.66 8.58 2 13 C0 11 0 11 -0.1953125 8.3984375 C-0.17210938 7.40070312 -0.14890625 6.40296875 -0.125 5.375 C-0.10695313 4.37210938 -0.08890625 3.36921875 -0.0703125 2.3359375 C-0.04710938 1.56507812 -0.02390625 0.79421875 0 0 Z " fill="#FFFFFF" transform="translate(108,45)"/>
<path d="M0 0 C4.62 0 9.24 0 14 0 C14 0.33 14 0.66 14 1 C9.38 1 4.76 1 0 1 C0 0.67 0 0.34 0 0 Z " fill="#31DCEB" transform="translate(0,22)"/>
<path d="M0 0 C2.1640625 0.0234375 2.1640625 0.0234375 4.625 0.375 C5.85089844 0.54128906 5.85089844 0.54128906 7.1015625 0.7109375 C7.72804687 0.80632813 8.35453125 0.90171875 9 1 C5.2735915 2.04702186 1.86986958 2.07442057 -2 2 C-1.34 1.34 -0.68 0.68 0 0 Z " fill="#FFFFFF" transform="translate(174,20)"/>
<path d="M0 0 C4.29 0 8.58 0 13 0 C13 0.33 13 0.66 13 1 C8.71 1 4.42 1 0 1 C0 0.67 0 0.34 0 0 Z " fill="#36E9E5" transform="translate(41,22)"/>
<path d="M0 0 C0.66 0.66 1.32 1.32 2 2 C2.66 1.67 3.32 1.34 4 1 C3.67 2.65 3.34 4.3 3 6 C1.5 4.6875 1.5 4.6875 0 3 C0 2.01 0 1.02 0 0 Z " fill="#3584D3" transform="translate(25,50)"/>
<path d="M0 0 C0.33 0 0.66 0 1 0 C1 3.96 1 7.92 1 12 C0.67 12 0.34 12 0 12 C0 8.04 0 4.08 0 0 Z " fill="#FFFFFF" transform="translate(232,41)"/>
<path d="M0 0 C3.96 0 7.92 0 12 0 C12 0.33 12 0.66 12 1 C8.04 1 4.08 1 0 1 C0 0.67 0 0.34 0 0 Z " fill="#FFFFFF" transform="translate(150,22)"/>
<path d="M0 0 C3.96 0 7.92 0 12 0 C12 0.33 12 0.66 12 1 C8.04 1 4.08 1 0 1 C0 0.67 0 0.34 0 0 Z " fill="#FFFFFF" transform="translate(76,22)"/>
<path d="M0 0 C3.96 0 7.92 0 12 0 C12 0.33 12 0.66 12 1 C8.04 1 4.08 1 0 1 C0 0.67 0 0.34 0 0 Z " fill="#FFFFFF" transform="translate(56,22)"/>
<path d="M0 0 C2.97 0 5.94 0 9 0 C9 0.33 9 0.66 9 1 C6.03 1 3.06 1 0 1 C0 0.67 0 0.34 0 0 Z " fill="#58C0F3" transform="translate(242,55)"/>
<path d="M0 0 C1.98 0.99 1.98 0.99 4 2 C4 2.99 4 3.98 4 5 C2.68 3.35 1.36 1.7 0 0 Z " fill="#FFFFFF" transform="translate(138,26)"/>
<path d="M0 0 C0.33 0 0.66 0 1 0 C1 2.64 1 5.28 1 8 C0.67 8 0.34 8 0 8 C0 5.36 0 2.72 0 0 Z " fill="#FFFFFF" transform="translate(177,50)"/>
<path d="M0 0 C0.33 0 0.66 0 1 0 C1 2.64 1 5.28 1 8 C0.67 8 0.34 8 0 8 C0 5.36 0 2.72 0 0 Z " fill="#FFFFFF" transform="translate(52,4)"/>
<path d="M0 0 C2.475 0.495 2.475 0.495 5 1 C3.68 1.33 2.36 1.66 1 2 C0.67 1.34 0.34 0.68 0 0 Z " fill="#1761E6" transform="translate(234,76)"/>
<path d="M0 0 C0.33 0.99 0.66 1.98 1 3 C0.34 3.66 -0.32 4.32 -1 5 C-0.67 3.35 -0.34 1.7 0 0 Z " fill="#398FDB" transform="translate(42,57)"/>
<path d="M0 0 C0.33 0 0.66 0 1 0 C1 1.98 1 3.96 1 6 C0.67 6 0.34 6 0 6 C0 4.02 0 2.04 0 0 Z " fill="#FFFFFF" transform="translate(177,43)"/>
<path d="M0 0 C0.66 0.66 1.32 1.32 2 2 C1.67 2.99 1.34 3.98 1 5 C0.67 3.35 0.34 1.7 0 0 Z " fill="#2571DD" transform="translate(5,42)"/>
<path d="M0 0 C0.66 0.66 1.32 1.32 2 2 C1.67 2.99 1.34 3.98 1 5 C0.67 3.35 0.34 1.7 0 0 Z " fill="#4184CD" transform="translate(22,42)"/>
<path d="M0 0 C1.98 0 3.96 0 6 0 C6 0.33 6 0.66 6 1 C4.02 1 2.04 1 0 1 C0 0.67 0 0.34 0 0 Z " fill="#FFFFFF" transform="translate(79,17)"/>
<path d="M0 0 C1.98 0 3.96 0 6 0 C6 0.33 6 0.66 6 1 C4.02 1 2.04 1 0 1 C0 0.67 0 0.34 0 0 Z " fill="#FFFFFF" transform="translate(59,17)"/>
<path d="M0 0 C0 0.99 0 1.98 0 3 C-0.66 2.67 -1.32 2.34 -2 2 C-1.34 1.34 -0.68 0.68 0 0 Z " fill="#1A51C8" transform="translate(254,71)"/>
<path d="M0 0 C0.99 0.495 0.99 0.495 2 1 C1.67 1.99 1.34 2.98 1 4 C0.67 2.68 0.34 1.36 0 0 Z " fill="#5196DC" transform="translate(15,25)"/>
<path d="M0 0 C0.99 1.485 0.99 1.485 2 3 C1.01 3.495 1.01 3.495 0 4 C0 2.68 0 1.36 0 0 Z " fill="#FFFFFF" transform="translate(163,24)"/>
<path d="M0 0 C0.66 0 1.32 0 2 0 C1.67 0.99 1.34 1.98 1 3 C0.67 2.01 0.34 1.02 0 0 Z " fill="#FFFFFF" transform="translate(71,3)"/>
<path d="M0 0 C0.66 0.66 1.32 1.32 2 2 C1.01 2.495 1.01 2.495 0 3 C0 2.01 0 1.02 0 0 Z " fill="#FFFFFF" transform="translate(185,27)"/>
<path d="M0 0 C0.66 0 1.32 0 2 0 C2 0.66 2 1.32 2 2 C1.34 2 0.68 2 0 2 C0 1.34 0 0.68 0 0 Z " fill="#FFFFFF" transform="translate(71,10)"/>
<path d="M0 0 C0.66 0.66 1.32 1.32 2 2 C1.34 2 0.68 2 0 2 C0 1.34 0 0.68 0 0 Z " fill="#FFFFFF" transform="translate(187,72)"/>
<path d="" fill="#0D3CCE" transform="translate(0,0)"/>
<path d="" fill="#FFFFFF" transform="translate(0,0)"/>
<path d="" fill="#FFFFFF" transform="translate(0,0)"/>
<path d="" fill="#1A81E4" transform="translate(0,0)"/>
<path d="" fill="#FFFFFF" transform="translate(0,0)"/>
<path d="" fill="#FFFFFF" transform="translate(0,0)"/>
<path d="" fill="#45B5F3" transform="translate(0,0)"/>
<path d="" fill="#428ED5" transform="translate(0,0)"/>
<path d="" fill="#FFFFFF" transform="translate(0,0)"/>
<path d="M0 0 C3 1 3 1 3 1 Z " fill="#FFFFFF" transform="translate(214,22)"/>
<path d="M0 0 C3 1 3 1 3 1 Z " fill="#FFFFFF" transform="translate(127,21)"/>
<path d="M0 0 C2 1 2 1 2 1 Z " fill="#49E8FA" transform="translate(249,75)"/>
<path d="" fill="#377CD6" transform="translate(0,0)"/>
<path d="" fill="#3A799F" transform="translate(0,0)"/>
<path d="" fill="#0F8BF4" transform="translate(0,0)"/>
<path d="" fill="#2FB4D4" transform="translate(0,0)"/>
<path d="" fill="#FFFFFF" transform="translate(0,0)"/>
<path d="" fill="#1085B9" transform="translate(0,0)"/>
<path d="" fill="#FFFFFF" transform="translate(0,0)"/>
<path d="" fill="#72B1FF" transform="translate(0,0)"/>
<path d="" fill="#FFFFFF" transform="translate(0,0)"/>
<path d="M0 0 C2 1 2 1 2 1 Z " fill="#FFFFFF" transform="translate(126,63)"/>
<path d="" fill="#37B1DD" transform="translate(0,0)"/>
<path d="" fill="#FFFFFF" transform="translate(0,0)"/>
<path d="" fill="#0375A2" transform="translate(0,0)"/>
<path d="" fill="#4CA6E5" transform="translate(0,0)"/>
<path d="" fill="#FFFFFF" transform="translate(0,0)"/>
<path d="" fill="#FFFFFF" transform="translate(0,0)"/>
<path d="M0 0 C2 1 2 1 2 1 Z " fill="#FFFFFF" transform="translate(223,58)"/>
<path d="" fill="#FFFFFF" transform="translate(0,0)"/>
<path d="" fill="#0573D6" transform="translate(0,0)"/>
<path d="M0 0 C2 1 2 1 2 1 Z " fill="#62B6E4" transform="translate(240,56)"/>
<path d="" fill="#72BAFF" transform="translate(0,0)"/>
<path d="" fill="#60B1D2" transform="translate(0,0)"/>
<path d="" fill="#52A3E5" transform="translate(0,0)"/>
<path d="" fill="#5AB9FF" transform="translate(0,0)"/>
<path d="" fill="#5DA9DC" transform="translate(0,0)"/>
<path d="" fill="#4EBFE8" transform="translate(0,0)"/>
<path d="" fill="#27D9F9" transform="translate(0,0)"/>
<path d="" fill="#22E2E9" transform="translate(0,0)"/>
<path d="" fill="#19A7D1" transform="translate(0,0)"/>
<path d="" fill="#1874CF" transform="translate(0,0)"/>
<path d="" fill="#3B9CCE" transform="translate(0,0)"/>
<path d="" fill="#49A5EC" transform="translate(0,0)"/>
<path d="" fill="#FFFFFF" transform="translate(0,0)"/>
<path d="" fill="#4DADE2" transform="translate(0,0)"/>
<path d="" fill="#FFFFFF" transform="translate(0,0)"/>
<path d="" fill="#4BC3CE" transform="translate(0,0)"/>
<path d="" fill="#FFFFFF" transform="translate(0,0)"/>
<path d="" fill="#5D7CBE" transform="translate(0,0)"/>
<path d="" fill="#FFFFFF" transform="translate(0,0)"/>
<path d="" fill="#FFFFFF" transform="translate(0,0)"/>
<path d="" fill="#6ADEEE" transform="translate(0,0)"/>
<path d="" fill="#40DEEC" transform="translate(0,0)"/>
<path d="" fill="#FFFFFF" transform="translate(0,0)"/>
<path d="" fill="#56C4F6" transform="translate(0,0)"/>
<path d="" fill="#62AAED" transform="translate(0,0)"/>
<path d="" fill="#72BBF2" transform="translate(0,0)"/>
<path d="" fill="#6BD9FC" transform="translate(0,0)"/>
<path d="" fill="#FFFFFF" transform="translate(0,0)"/>
<path d="" fill="#36AFDE" transform="translate(0,0)"/>
<path d="" fill="#5BADE8" transform="translate(0,0)"/>
<path d="" fill="#FFFFFF" transform="translate(0,0)"/>
<path d="" fill="#4BBBF9" transform="translate(0,0)"/>
<path d="" fill="#52B2F2" transform="translate(0,0)"/>
<path d="" fill="#FFFFFF" transform="translate(0,0)"/>
<path d="" fill="#7DCBF6" transform="translate(0,0)"/>
<path d="" fill="#FFFFFF" transform="translate(0,0)"/>
<path d="" fill="#3CBDF9" transform="translate(0,0)"/>
<path d="" fill="#56B9F8" transform="translate(0,0)"/>
<path d="" fill="#4683A1" transform="translate(0,0)"/>
<path d="" fill="#4CAAED" transform="translate(0,0)"/>
<path d="" fill="#87DCF1" transform="translate(0,0)"/>
<path d="" fill="#001D24" transform="translate(0,0)"/>
<path d="" fill="#00209A" transform="translate(0,0)"/>
<path d="" fill="#006FBD" transform="translate(0,0)"/>
<path d="" fill="#FFFFFF" transform="translate(0,0)"/>
<path d="" fill="#FFFFFF" transform="translate(0,0)"/>
<path d="" fill="#3FDBFC" transform="translate(0,0)"/>
<path d="" fill="#56D0FF" transform="translate(0,0)"/>
<path d="" fill="#FFFEFF" transform="translate(0,0)"/>
<path d="" fill="#36E1FC" transform="translate(0,0)"/>
<path d="" fill="#FFFFFF" transform="translate(0,0)"/>
<path d="" fill="#FFFFFF" transform="translate(0,0)"/>
<path d="" fill="#FFFFFF" transform="translate(0,0)"/>
<path d="" fill="#FFFFFF" transform="translate(0,0)"/>
<path d="" fill="#0059B0" transform="translate(0,0)"/>
<path d="" fill="#FFFFFF" transform="translate(0,0)"/>
<path d="" fill="#FFFFFF" transform="translate(0,0)"/>
<path d="" fill="#FFFFFF" transform="translate(0,0)"/>
<path d="" fill="#FFFFFF" transform="translate(0,0)"/>
<path d="" fill="#FFFFFF" transform="translate(0,0)"/>
<path d="" fill="#FFFFFF" transform="translate(0,0)"/>
<path d="" fill="#FFFFFF" transform="translate(0,0)"/>
<path d="" fill="#98FFFF" transform="translate(0,0)"/>
<path d="" fill="#FFFFFF" transform="translate(0,0)"/>
<path d="" fill="#0B8FB7" transform="translate(0,0)"/>
<path d="" fill="#FFFFFF" transform="translate(0,0)"/>
<path d="" fill="#FFFFFF" transform="translate(0,0)"/>
<path d="" fill="#2FEBFF" transform="translate(0,0)"/>
<path d="" fill="#FFFFFF" transform="translate(0,0)"/>
<path d="" fill="#FFFFFF" transform="translate(0,0)"/>
<path d="" fill="#FFFFFF" transform="translate(0,0)"/>
<path d="" fill="#FFFFFF" transform="translate(0,0)"/>
<path d="" fill="#FFFFFF" transform="translate(0,0)"/>
<path d="" fill="#5CD3ED" transform="translate(0,0)"/>
<path d="" fill="#FFFFFF" transform="translate(0,0)"/>
<path d="" fill="#FFFFFF" transform="translate(0,0)"/>
<path d="" fill="#FFFFFF" transform="translate(0,0)"/>
<path d="" fill="#FFFFFF" transform="translate(0,0)"/>
<path d="" fill="#FFFFFF" transform="translate(0,0)"/>
<path d="" fill="#FFFFFF" transform="translate(0,0)"/>
<path d="" fill="#FFFFFF" transform="translate(0,0)"/>
<path d="" fill="#FFFFFF" transform="translate(0,0)"/>
<path d="" fill="#FFFFFF" transform="translate(0,0)"/>
<path d="" fill="#FFFFFF" transform="translate(0,0)"/>
<path d="" fill="#FFFFFF" transform="translate(0,0)"/>
<path d="" fill="#FFFFFF" transform="translate(0,0)"/>
<path d="" fill="#FFFFFF" transform="translate(0,0)"/>
<path d="" fill="#FFFFFF" transform="translate(0,0)"/>
<path d="" fill="#FFFFFF" transform="translate(0,0)"/>
<path d="" fill="#6395E6" transform="translate(0,0)"/>
<path d="" fill="#002246" transform="translate(0,0)"/>
<path d="" fill="#FFFFFF" transform="translate(0,0)"/>
<path d="" fill="#FFFFFF" transform="translate(0,0)"/>
<path d="" fill="#FFFFFF" transform="translate(0,0)"/>
<path d="" fill="#FFFFFF" transform="translate(0,0)"/>
<path d="" fill="#FFFFFF" transform="translate(0,0)"/>
<path d="" fill="#FFFFFF" transform="translate(0,0)"/>
<path d="" fill="#FFFFFF" transform="translate(0,0)"/>
<path d="" fill="#FDFFFD" transform="translate(0,0)"/>
<path d="" fill="#FFFFFF" transform="translate(0,0)"/>
<path d="" fill="#FFFFFF" transform="translate(0,0)"/>
<path d="" fill="#FFFFFF" transform="translate(0,0)"/>
<path d="" fill="#FFFFFF" transform="translate(0,0)"/>
<path d="" fill="#FFFFFF" transform="translate(0,0)"/>
<path d="" fill="#FFFFFF" transform="translate(0,0)"/>
<path d="" fill="#FFFFFF" transform="translate(0,0)"/>
<path d="" fill="#FFFFFF" transform="translate(0,0)"/>
<path d="" fill="#FFFFFF" transform="translate(0,0)"/>
<path d="" fill="#FFFFFF" transform="translate(0,0)"/>
<path d="" fill="#FFFFFF" transform="translate(0,0)"/>
<path d="" fill="#FFFFFF" transform="translate(0,0)"/>
<path d="" fill="#FFFFFF" transform="translate(0,0)"/>
<path d="" fill="#FFFFFF" transform="translate(0,0)"/>
<path d="" fill="#FFFFFF" transform="translate(0,0)"/>
<path d="" fill="#FFFFFF" transform="translate(0,0)"/>
<path d="" fill="#FFFFFF" transform="translate(0,0)"/>
<path d="" fill="#FFFFFF" transform="translate(0,0)"/>
<path d="" fill="#FFFFFF" transform="translate(0,0)"/>
<path d="" fill="#FFFFFF" transform="translate(0,0)"/>
</svg>
